<svg xmlns="http://www.w3.org/2000/svg" id="Layer_1" style="" viewBox="0 0 512 512" x="0px" y="0px" xmlns:xml="http://www.w3.org/XML/1998/namespace" xml:space="preserve" version="1.1">
<g id="XMLID_1_">
	<path id="XMLID_10_" d="M 301 288.3 l 96.1 192.2 h -32.3 L 301 352.1 V 512 h -32.3 V 319.8 l -63.8 159.9 h -32.3 l 63.8 -159.9 L 301 288.3 Z M 268.7 0 h -32.3 v 32.3 h 32.3 V 0 Z M 204.9 96.1 h -32.3 v 32.3 h 32.3 V 96.1 Z M 108.8 32.3 H 76.5 v 32.3 h 32.3 V 32.3 Z M 64.7 288.3 c -7.1 5.5 -8.7 14.2 -5.5 21.3 l 17.3 29.1 c 3.9 7.1 13.4 10.2 20.5 6.3 l 44.1 -21.3 l -37 -63.8 L 64.7 288.3 L 64.7 288.3 Z M 317.5 115.8 l -185.9 126 l 39.4 68.5 l 202.4 -96.9 L 317.5 115.8 L 317.5 115.8 Z M 452.2 156.8 l -47.3 -80.3 c -4.7 -7.9 -15 -10.2 -22.8 -5.5 l -38.6 26.8 l 59.1 102.4 l 42.5 -20.5 C 453.8 174.9 456.9 164.6 452.2 156.8 Z" />
</g>
</svg>